# xmcd CD database file generated by Grip 2.95
# 
# Track frame offsets:
#       150
#       18982
#       43700
#       54595
#       74764
#       94992
#       108000
#       118291
#       137405
#       154183
#       170653
#       182760
#       199781
# 
# Disc length: 2808 seconds
# 
# Revision: 3
# Processed by: cddbd v1.4b42PL1 Copyright (c) Steve Scherf et al.
# Submitted via: Grip 2.95
# 
DISCID=b90af60d
DTITLE=Jimi Hocking - Blue Guitar
DYEAR=1900
DGENRE=
TTITLE0=Brand New Radio
TTITLE1=Bitter Tears
TTITLE2=Blues is my Boss
TTITLE3=The Golden Rule
TTITLE4=My Way or the Highway
TTITLE5=My First Car
TTITLE6=School Fool
TTITLE7=Nothing to Prove
TTITLE8=My Idea of Fun
TTITLE9=A Little Like Me
TTITLE10=The Most Beautifool
TTITLE11=Daydreamin'
TTITLE12=Trouble
EXTD=
EXTT0=
EXTT1=
EXTT2=
EXTT3=
EXTT4=
EXTT5=
EXTT6=
EXTT7=
EXTT8=
EXTT9=
EXTT10=
EXTT11=
EXTT12=
PLAYORDER=
